<svg width="25" height="16" viewBox="0 0 25 16" fill="none" xmlns="http://www.w3.org/2000/svg">
<path d="M16.1698 1.46342H22.1585V2.91632H16.1698V1.46342ZM10.169 7.21201C11.4929 6.57861 12.1863 5.61501 12.1863 4.12608C12.1863 1.18124 9.99494 0.466793 7.46435 0.466793H0.5V15.248H7.65948C10.3432 15.248 12.8617 13.9572 12.8617 10.9553C12.8617 9.10019 11.9852 7.72833 10.169 7.21201V7.21201ZM3.74803 2.98837H6.79493C7.96867 2.98837 9.02233 3.31557 9.02233 4.67843C9.02233 5.93321 8.20281 6.43752 7.04109 6.43752H3.74803V2.98837ZM7.2152 12.7385H3.74503V8.66792H7.28424C8.71313 8.66792 9.6167 9.26529 9.6167 10.7782C9.6167 12.2672 8.53903 12.7385 7.2152 12.7385V12.7385ZM24.5 10.0518C24.5 6.88481 22.6478 4.24616 19.2978 4.24616C16.0407 4.24616 13.8253 6.69869 13.8253 9.9137C13.8253 13.2458 15.9236 15.5332 19.2978 15.5332C21.8523 15.5332 23.5064 14.3835 24.3019 11.931H21.7113C21.4291 12.8465 20.2824 13.3268 19.3908 13.3268C17.6677 13.3268 16.7672 12.3182 16.7672 10.6041H24.479C24.488 10.427 24.5 10.2409 24.5 10.0518V10.0518ZM16.7672 8.74897C16.8602 7.34109 17.7998 6.46154 19.2047 6.46154C20.6816 6.46154 21.4201 7.32908 21.5492 8.74897H16.7672Z" fill="white"/>
</svg>
