<svg width="25" height="24" viewBox="0 0 25 24" fill="none" xmlns="http://www.w3.org/2000/svg">
<path d="M21.4924 1.28571H3.50845C2.55756 1.28571 1.78613 2.05714 1.78613 3.00803V20.992C1.78613 21.9429 2.55756 22.7143 3.50845 22.7143H21.4924C22.4433 22.7143 23.2147 21.9429 23.2147 20.992V3.00803C23.2147 2.05714 22.4433 1.28571 21.4924 1.28571V1.28571ZM21.4924 21C9.49774 20.9973 3.50042 20.9946 3.50042 20.992C3.5031 8.99732 3.50578 3 3.50845 3C15.5031 3.00268 21.5004 3.00536 21.5004 3.00803C21.4977 15.0027 21.4951 21 21.4924 21ZM4.96292 9.31875H8.14238V19.5455H4.96292V9.31875ZM6.55399 7.92054C7.56917 7.92054 8.39685 7.09553 8.39685 6.07768C8.39685 5.83567 8.34918 5.59603 8.25657 5.37245C8.16396 5.14886 8.02821 4.94571 7.85709 4.77458C7.68596 4.60346 7.48281 4.46771 7.25922 4.3751C7.03564 4.28249 6.796 4.23482 6.55399 4.23482C6.31198 4.23482 6.07235 4.28249 5.84876 4.3751C5.62517 4.46771 5.42202 4.60346 5.25089 4.77458C5.07977 4.94571 4.94402 5.14886 4.85141 5.37245C4.7588 5.59603 4.71113 5.83567 4.71113 6.07768C4.70845 7.09553 5.53345 7.92054 6.55399 7.92054ZM13.312 14.4857C13.312 13.1518 13.5665 11.8607 15.2192 11.8607C16.8477 11.8607 16.8718 13.3848 16.8718 14.5714V19.5455H20.0486V13.9366C20.0486 11.183 19.454 9.06429 16.237 9.06429C14.6915 9.06429 13.6549 9.91339 13.229 10.717H13.1861V9.31875H10.1352V19.5455H13.312V14.4857Z" fill="white"/>
</svg>
