<svg width="32" height="32" viewBox="0 0 32 32" fill="none" xmlns="http://www.w3.org/2000/svg">
<path d="M32 0H18V2H20V6H18V8H20V10H22V12H24V14H26V16H28V18H32V0Z" fill="#F8F8F8"/>
<path d="M18 0H12V2H14V4H8V6H10V8H12V10H14V12H16V14H14V16H12V18H18V22H20V16H22V14H24V12H22V10H20V8H18V6H16V2H18V0Z" fill="#1A1A1A"/>
<path d="M12 0H4V2H8V4H14V2H12V0Z" fill="#F8F8F8"/>
<path d="M4 0H2V2H4V0Z" fill="#1A1A1A"/>
<path d="M2 0H0V32H16V30H10V28H6V26H4V24H2V22H4V20H10V18H12V16H14V14H16V12H14V10H12V8H10V6H8V4H4V2H2V0Z" fill="#F8F8F8"/>
<path d="M20 2H18V6H20V2Z" fill="#1A1A1A"/>
<path d="M18 2H16V6H18V2Z" fill="#F8F8F8"/>
<path d="M8 2H4V4H8V2Z" fill="#1A1A1A"/>
<path d="M26 14H24V16H26V14Z" fill="#1A1A1A"/>
<path d="M24 14H22V16H20V22H22V24H24V26H28V28H30V30H28V32H32V20H28V18H26V16H24V14Z" fill="#F8F8F8"/>
<path d="M28 16H26V18H28V16Z" fill="#1A1A1A"/>
<path d="M32 18H28V20H32V18Z" fill="#1A1A1A"/>
<path d="M18 18H12V22H16V24H20V22H18V18Z" fill="#F8F8F8"/>
<path d="M12 18H10V20H4V22H12V18Z" fill="#1A1A1A"/>
<path d="M22 22H20V24H16V26H22V28H28V26H24V24H22V22Z" fill="#1A1A1A"/>
<path d="M16 22H12V24H16V22Z" fill="#1A1A1A"/>
<path d="M12 22H4V24H6V26H10V24H12V22Z" fill="#F8F8F8"/>
<path d="M4 22H2V24H4V22Z" fill="#1A1A1A"/>
<path d="M16 24H12V26H10V28H16V30H20V28H22V26H16V24Z" fill="#F8F8F8"/>
<path d="M12 24H10V26H12V24Z" fill="#1A1A1A"/>
<path d="M6 24H4V26H6V24Z" fill="#1A1A1A"/>
<path d="M10 26H6V28H10V26Z" fill="#1A1A1A"/>
<path d="M30 28H28V30H30V28Z" fill="#1A1A1A"/>
<path d="M28 28H22V30H28V28Z" fill="#F8F8F8"/>
<path d="M22 28H20V30H16V32H28V30H22V28Z" fill="#1A1A1A"/>
<path d="M16 28H10V30H16V28Z" fill="#1A1A1A"/>
</svg>
